<svg xmlns="http://www.w3.org/2000/svg" width="64" height="64" viewBox="0 0 64 64" fill="none">
  <path
    fill="currentColor"
    d="M32 6C17.64 6 6 17.64 6 32s11.64 26 26 26 26-11.64 26-26S46.36 6 32 6Zm0 46c-11.046 0-20-8.954-20-20S20.954 12 32 12s20 8.954 20 20-8.954 20-20 20Z"
  />
  <path
    fill="currentColor"
    d="M40.5 22.5c-2.3-2.3-5.5-3.5-8.5-3.5-6.6 0-12 5.4-12 12 0 6.6 5.4 12 12 12 3 0 6.2-1.2 8.5-3.5l-4.2-4.2c-1.2 1.2-2.8 1.9-4.3 1.9-3.3 0-6-2.7-6-6s2.7-6 6-6c1.5 0 3.1.7 4.3 1.9l4.2-4.5Z"
  />
</svg>
